<svg id="logo_full" xmlns="http://www.w3.org/2000/svg" viewBox="0 0 430 160"><g id="bg"><path id="clinic_bg" class="cls-1" d="M427.2,59.6a11.26,11.26,0,0,1-.94,1l-.17.16c-.35.34-.65.62-1,.9l-.21.2-.79.71-.28.24c-.57.5-1.14,1-1.72,1.47l-.37.32c-1.26,1.07-2.55,2.1-3.79,3.09l-.31.24q-4.31,3.33-8.5,6.23a196,196,0,0,1-17.58,10.91c-2.36,1.29-5.09,2.76-8.06,4.27l2.63,1.82A121.31,121.31,0,0,1,401,103a40.79,40.79,0,0,1,7.3,9.11,22.36,22.36,0,0,1,2.67,7.65,20.33,20.33,0,0,1-.78,9.33,23.79,23.79,0,0,1-10.24,13.08,23.21,23.21,0,0,1-7.58,3.09,26,26,0,0,1-5.27.52c-.71,0-1.45,0-2.21-.08-.33,0-.65-.05-1-.09A11.64,11.64,0,0,1,372.51,160a11.72,11.72,0,0,1-7.27-2.52,8.69,8.69,0,0,0-2.27-1.1,17.13,17.13,0,0,0-3.66-.83c-.53-.05-1.09-.08-1.59-.08a8.87,8.87,0,0,0-1.46.11,2,2,0,0,0-.31.08,10.52,10.52,0,0,1-14.38.65,10.37,10.37,0,0,1-3.6-6.77,11.94,11.94,0,0,1-.76,3.09,11.72,11.72,0,0,1-15.16,6.56,11.48,11.48,0,0,1-3-1.71,9,9,0,0,0-2.27-1.1,17.76,17.76,0,0,0-3.66-.83c-.52-.05-1.09-.08-1.59-.08a8.87,8.87,0,0,0-1.46.11,1.73,1.73,0,0,0-.31.08,10.5,10.5,0,0,1-17.61-10.28,16.66,16.66,0,0,1-1.85-.55l-.25-.09a17.7,17.7,0,0,1-2.93-1.43,25.82,25.82,0,0,1-5.69-4.86l-.08-.08a51,51,0,0,1-3.3-4.15,82.38,82.38,0,0,1-8.56-14.85,88.74,88.74,0,0,1-9.69,9.71A88.23,88.23,0,0,1,233.55,145a83,83,0,0,1-30.24,5.61H203a79.86,79.86,0,0,1-15.56-1.53,74.36,74.36,0,0,1-15.13-4.64,62.6,62.6,0,0,1-14.05-8.22,51.48,51.48,0,0,1-6.32-5.9l-.07-.08a40.05,40.05,0,0,1-5.32-7.61,30.62,30.62,0,0,1-3.25-10,25.75,25.75,0,0,1,1-11.37,30,30,0,0,1,4.88-9.13l.14-.18.6-.7a30.94,30.94,0,0,1,2.74-2.87l.28-.27a16.23,16.23,0,0,1,1.46-1.29l1.53-1.22A59.38,59.38,0,0,1,170,77.85a118.15,118.15,0,0,1,13.92-4.46l1.59-.38c1.69-.4,3.44-.81,5.22-1.18,1.08-.26,2.16-.5,3.23-.74s2.15-.48,3.22-.75l2.32-.57c1.39-.33,2.7-.65,4-1l.14,0a60.35,60.35,0,0,0,5.89-1.81,12.78,12.78,0,0,1,4.61-.86,12.91,12.91,0,0,1,12,8.19,12.67,12.67,0,0,1-.24,9.78,12.88,12.88,0,0,1-1.49,2.51c1.22-.31,2.38-.64,3.53-1a164.07,164.07,0,0,0,16.22-5.47c5.71-2.28,10.79-4.58,15.53-7s9.78-5.36,14.72-8.55A165.69,165.69,0,0,0,288,54.55c2.3-1.92,4.37-3.73,6.24-5.46.92-.86,1.91-1.81,2.89-2.8l1.42-1.47c.33-.35.73-.8,1-1.13l0,0a12.68,12.68,0,0,1,17.8-1.41A12.57,12.57,0,0,1,318.79,60c-.23.28-.51.56-.77.82-.79.77-1.4,1.33-2.1,1.94l-1.86,1.62c-1.36,1.17-2.69,2.24-3.85,3.18-2.38,1.89-4.92,3.8-7.78,5.85-5,3.58-10.28,7-16.15,10.41-3.23,1.88-6.58,3.71-10.13,5.53a12.62,12.62,0,0,1,4.3,5.66L289,107.7a12.65,12.65,0,0,1,9-6.12,13.41,13.41,0,1,1,22,0,11.67,11.67,0,0,1,1.32-.07,12.57,12.57,0,0,1,5,1.05,8.82,8.82,0,0,1,4.8,3.61c.24.29.46.59.67.9a12.59,12.59,0,0,1,10.44-5.56,13.9,13.9,0,0,1,1.71.11A11.06,11.06,0,0,1,341.49,85c-.4-1.19-.8-2.37-1.19-3.56l-.11-.31a13.63,13.63,0,0,1,25.91-8.49,14.15,14.15,0,0,1,.37,1.39c4.19-2.13,8.66-4.67,13.85-7.9a169,169,0,0,0,14.74-10.63l.08-.06c1-.79,2-1.66,3.08-2.58l.33-.29c.76-.65,1.54-1.36,2.34-2.1l.92-.83.27-.26c1-.95,2-1.85,2.85-2.75.51-.52,1-1,1.44-1.49l.32-.35.32-.34.24-.29.3-.32a12.56,12.56,0,0,1,9.81-4.67,12.71,12.71,0,0,1,7.92,2.78,12.53,12.53,0,0,1,1.92,17.7Z"/><path id="lisa_bg" class="cls-1" d="M148.65,116.29a.34.34,0,0,0,0-.1,126,126,0,0,0-4.47-23.62A179.53,179.53,0,0,0,137,70.65a10.8,10.8,0,0,0-9.35-6.6v0H105.9a28.62,28.62,0,0,0,1.23-4.66A5.65,5.65,0,0,0,105,53.86,5.7,5.7,0,0,0,99,53.28c-1.1.53-3.14.8-6.07.8-1.51,0-3.08-.06-4.75-.13s-3.49-.14-5.24-.14l-1.75,0a13.55,13.55,0,0,0-5.77-25.9h-.23a13.54,13.54,0,0,0-11.4,6.43c-5.67-6.33-12.6-10-18.7-13.24-8.36-4.42-15.58-8.24-19-17.44A5.69,5.69,0,0,0,20.77,0h-.24a5.7,5.7,0,0,0-5.25,4.14c-4.6,16.28-3.36,30.75,3.6,41.86C26,57.29,38.69,64.89,55.74,68a5.86,5.86,0,0,0,1,.09,5.1,5.1,0,0,0,.87-.07c0,.93,0,1.88-.07,2.83-5.44-3.44-10.5-5.13-15.39-5.13-13.66,0-20.85,12.84-26.63,23.15-2.72,4.86-6.83,12.21-9.24,12.21H6.18l-.49,0A5.67,5.67,0,0,0,3.37,111.9,46.05,46.05,0,0,0,22.22,116a42.91,42.91,0,0,0,30-12.23c-1,8.38-5,42.92,22.79,44.25h.08c.7.07,1.4.11,2.1.11.38,0,.78,0,1.09,0a25.28,25.28,0,0,0,8.64-2,30.94,30.94,0,0,0,7.41-4.6,9.08,9.08,0,0,0,13.16,12.5,4.1,4.1,0,0,1,1.13-.31,11.32,11.32,0,0,1,1.74-.12c.63,0,1.31,0,2,.11a22.11,22.11,0,0,1,4.18.86,11.69,11.69,0,0,1,2.95,1.31,10.39,10.39,0,0,0,5.92,1.87,10.25,10.25,0,0,0,9.19-14.87,10.73,10.73,0,0,0-1.29-1.94,14.32,14.32,0,0,0,7.91-2.49,15.68,15.68,0,0,0,5.12-6,20,20,0,0,0,1.77-5.16c.12-.57.26-1.32.36-2.11.09-.61.16-1.24.21-2A49.65,49.65,0,0,0,148.65,116.29Z"/></g><g id="text"><path id="clinic" class="cls-2" d="M300.23,145.28a21.07,21.07,0,0,1,6.84-2.76,32,32,0,0,1,6.67-.78,39.69,39.69,0,0,1,6.61.44,30.61,30.61,0,0,1,6.84,1.75l.27.1a4.55,4.55,0,0,1-3.34,8.46,4.84,4.84,0,0,1-1.17-.68,15.32,15.32,0,0,0-4.33-2.23,24.1,24.1,0,0,0-5.14-1.16,18.06,18.06,0,0,0-5.15.09,7.08,7.08,0,0,0-4,2,3.37,3.37,0,1,1-4.39-5Zm45.69.16a3.29,3.29,0,0,0-.72.63,3.37,3.37,0,1,0,5.12,4.39,7,7,0,0,1,4-2,18,18,0,0,1,5.14-.09,24.33,24.33,0,0,1,5.15,1.16,15.59,15.59,0,0,1,4.33,2.23,4.66,4.66,0,0,0,1.17.68A4.55,4.55,0,0,0,373.4,144l-.27-.1a30.54,30.54,0,0,0-6.83-1.75,39.76,39.76,0,0,0-6.61-.44,32,32,0,0,0-6.68.78,21.16,21.16,0,0,0-6.84,2.76ZM308.55,87.69a6.24,6.24,0,1,0,6.24,6.24A6.24,6.24,0,0,0,308.55,87.69Zm-104.74,10-4.4.55L195,98.6c-5.87.6-11.86.56-17.69-1.68l-.18-.07a5.9,5.9,0,1,0,0,11,41.52,41.52,0,0,1,9.19-2.14c3-.5,6.09-.5,9.14-.8l4.56-.37,4.55-.54c3-.31,6-.87,9.07-1.32a202.83,202.83,0,0,0,35.4-9.41c5.76-2.09,11.44-4.41,17-7s11-5.44,16.29-8.56,10.5-6.42,15.52-10c2.51-1.8,5-3.66,7.42-5.61,1.22-1,2.43-2,3.63-3l1.79-1.57c.61-.54,1.16-1,1.85-1.72a3.81,3.81,0,0,0,.33-.36,5.47,5.47,0,1,0-8.33-7.1h0c-.36.42-.87,1-1.34,1.48l-1.48,1.53c-1,1-2,2-3.09,3-2.13,2-4.33,3.88-6.57,5.75a168.31,168.31,0,0,1-14.19,10.36c-4.93,3.2-10,6.19-15.23,8.89S252,84.45,246.56,86.65a170,170,0,0,1-16.75,5.67,166.56,166.56,0,0,1-17.25,4C209.65,96.78,206.74,97.35,203.81,97.66ZM420.64,55.18a4.58,4.58,0,0,1-.42.46l-.12.12c-.39.39-.69.65-1,1s-.65.58-1,.87c-.64.58-1.3,1.12-1.94,1.66-1.29,1.11-2.61,2.15-3.92,3.2q-4,3.09-8.07,5.93a182.93,182.93,0,0,1-16.86,10.51,196.09,196.09,0,0,1-17.73,8.8l-1.05.46L381.26,97a115.74,115.74,0,0,1,13.84,11.07,33.3,33.3,0,0,1,6,7.47,15.73,15.73,0,0,1,1.85,5.24,13.27,13.27,0,0,1-.52,6.11,16.66,16.66,0,0,1-7.14,9.17,16,16,0,0,1-5.26,2.19,19.76,19.76,0,0,1-5.53.32,18.13,18.13,0,0,1-5.59-1.31,18.52,18.52,0,0,1-4.79-2.91,19.8,19.8,0,0,1-3.43-3.84c-.85-1.18-1.68-2.31-2.51-3.4a21.38,21.38,0,0,1-.69,2.91,13.82,13.82,0,0,1-1.07,2.59,10.14,10.14,0,0,1-2,2.74,8.29,8.29,0,0,1-3.56,2,5.31,5.31,0,0,1-1,.2,5.51,5.51,0,0,1-1,.08h-.47a4.26,4.26,0,0,1-.56,0,6,6,0,0,1-1.3-.26,7.59,7.59,0,0,1-3.1-2,12.87,12.87,0,0,1-1.6-2,31,31,0,0,1-2.11-3.78c-.61-1.23-1.15-2.45-1.69-3.65-.11-.25-.2-.5-.31-.75,0,.47-.07.94-.12,1.42a20.45,20.45,0,0,1-.78,3.94,12.75,12.75,0,0,1-2.4,4.55,9.35,9.35,0,0,1-2.66,2.17,9.07,9.07,0,0,1-3.44,1,8.8,8.8,0,0,1-1.94-.05,7.55,7.55,0,0,1-2-.64,8.34,8.34,0,0,1-2.4-1.71,14.18,14.18,0,0,1-2.41-3.32,34,34,0,0,1-1.46-3.17l-1.17-3.1c0,.1,0,.2,0,.3a20.91,20.91,0,0,1-.78,4,12.35,12.35,0,0,1-2.49,4.62,9.46,9.46,0,0,1-2.69,2.13,9.35,9.35,0,0,1-3.35,1l-.78,0h-.39l-.62-.06a7.07,7.07,0,0,1-2.13-.59,8.88,8.88,0,0,1-2.49-1.7,14.32,14.32,0,0,1-2.49-3.29,29.37,29.37,0,0,1-1.53-3.16c-.54-1.29-1-2.56-1.51-3.81,0,.22,0,.43,0,.65a21.18,21.18,0,0,1-1.18,5.32,12.25,12.25,0,0,1-1.7,3.11,9.37,9.37,0,0,1-3.45,2.84,6.57,6.57,0,0,1-1.11.44,6.85,6.85,0,0,1-1.12.29,8.65,8.65,0,0,1-1.08.14l-.53,0a3.94,3.94,0,0,1-.6,0,8.13,8.13,0,0,1-2.56-.53,9.73,9.73,0,0,1-1.74-.85,18.92,18.92,0,0,1-4.17-3.61c-1.06-1.2-2-2.39-2.84-3.58a74.2,74.2,0,0,1-8.27-14.72c-1.08-2.55-2.07-5.14-2.9-7.79-.31-.93-.58-1.88-.84-2.83a89.18,89.18,0,0,1-6.72,9,84.18,84.18,0,0,1-9.8,10,81.29,81.29,0,0,1-24.07,14.67,75.6,75.6,0,0,1-27.8,5.12A72,72,0,0,1,189,142a65.87,65.87,0,0,1-13.59-4.17A55.66,55.66,0,0,1,163,130.59a43.59,43.59,0,0,1-5.4-5.06,33,33,0,0,1-4.39-6.27,23.41,23.41,0,0,1-2.47-7.63,18.66,18.66,0,0,1,.66-8.2,22.8,22.8,0,0,1,3.75-7,28.51,28.51,0,0,1,2.57-2.79c.46-.42.89-.88,1.37-1.26l1.44-1.14a51.67,51.67,0,0,1,12.33-6.79,108.24,108.24,0,0,1,13-4.18c2.2-.51,4.38-1.05,6.58-1.5s4.38-1,6.56-1.53,4.37-1,6.55-1.67a65,65,0,0,0,6.55-2,5.68,5.68,0,0,1,4.09,10.6,5.6,5.6,0,0,1-2.9.31l-.13,0a54.85,54.85,0,0,0-13-.33,72.11,72.11,0,0,0-12.69,2.28,87.38,87.38,0,0,0-12,4.07,42.24,42.24,0,0,0-10.48,6.25l-1.1,1c-.37.32-.66.69-1,1a22.42,22.42,0,0,0-1.8,2.14,14.51,14.51,0,0,0-2.17,4.69,12.65,12.65,0,0,0,1.87,9.57,24.78,24.78,0,0,0,3.46,4.28,34.83,34.83,0,0,0,4.48,3.66,50.12,50.12,0,0,0,10.6,5.4A66.11,66.11,0,0,0,203,132.36a68,68,0,0,0,12.07-1.31,64.69,64.69,0,0,0,11.63-3.44A71.57,71.57,0,0,0,247.46,115a96.57,96.57,0,0,0,16.38-18.54l.08-.12a5.46,5.46,0,0,1,7.61-1.37,5.39,5.39,0,0,1,2.16,3.16l.16.24,8.7,13,4.38,6.53c1.44,2.15,2.88,4.29,4.42,6.2a34.47,34.47,0,0,0,2.33,2.63c.29.3.59.56.87.81a13.2,13.2,0,0,0,.28-2,29.29,29.29,0,0,0,0-3.38c-.11-2.37-.43-4.85-.76-7.36v0a5.47,5.47,0,0,1,4.71-6.14,5.41,5.41,0,0,1,3.44.71,1.76,1.76,0,0,1,1.74,1h0a85.33,85.33,0,0,0,5.94,10.63,35.22,35.22,0,0,0,3.61,4.68,23.42,23.42,0,0,0,2,1.92c.11.1.22.2.34.29s0-.07,0-.11a14.17,14.17,0,0,0,.32-2.07,31,31,0,0,0-.08-5.25c-.16-1.85-.44-3.73-.68-5.65v0a5.44,5.44,0,0,1,8-5.48,1.78,1.78,0,0,1,1.39,1,5.57,5.57,0,0,1,1.43,2.75l.09.56a69.35,69.35,0,0,0,4.23,7.42,30.58,30.58,0,0,0,3.66,4.66,22,22,0,0,0,2,1.9c.1.09.2.16.3.24s0-.08,0-.14a15.64,15.64,0,0,0,.34-2.1,30.46,30.46,0,0,0,0-5.23c-.14-1.84-.4-3.71-.63-5.59v0a5.48,5.48,0,0,1,4.78-6.09,5.34,5.34,0,0,1,3.19.61,1.77,1.77,0,0,1,1.48,1.07h0s0,.07.05.1A5.39,5.39,0,0,1,347,113c0,.18.06.36.09.54a75.59,75.59,0,0,0,5.59,9.92,22.71,22.71,0,0,0,4.56,5.24l.3.21a7.58,7.58,0,0,1,.22-1.39,23.37,23.37,0,0,0,.18-2.83,65.69,65.69,0,0,0-.41-6.68l-.22-1.73-.13-.87c0-.27-.06-.46-.12-.78l-.73-3.7a54.62,54.62,0,0,1-1-7c-.08-.2-.17-.39-.25-.59C354,100.64,353,97.92,352,95.22l0-.08-.58.37A4,4,0,1,1,347,88.92a3.9,3.9,0,0,1,1.76-.65h.14c.2,0,.39-.06.59-.09q-1.62-4.62-3.17-9.3h0a6.48,6.48,0,1,1,12.31-4,6.37,6.37,0,0,1,.2.75c.58,2.9,1.22,5.8,1.9,8.69,2-.9,4-1.8,5.94-2.82a182.3,182.3,0,0,0,16.6-9.33A175.91,175.91,0,0,0,398.62,61c1.24-1,2.42-2,3.61-3s2.33-2.09,3.49-3.15,2.27-2.14,3.35-3.24c.54-.55,1.08-1.1,1.59-1.66l.76-.83c.23-.27.51-.57.67-.78a5.49,5.49,0,0,1,8.55,6.88Zm-124.9,73.13a.38.38,0,0,0-.14-.05l.07,0C295.76,128.35,295.78,128.33,295.74,128.31Zm21.53.33a1.62,1.62,0,0,0-.64-.22h0a3.34,3.34,0,0,0,.52.3C317.33,128.78,317.47,128.78,317.27,128.64Zm20.85,0a1.63,1.63,0,0,0-.57-.23l-.19,0a4.39,4.39,0,0,0,.58.32C338.14,128.8,338.29,128.82,338.12,128.67Zm20.43.56a1.14,1.14,0,0,0-.37-.12c-.11,0-.09,0-.08,0v0s0,0,0-.06l-.09,0c-.14-.05-.31,0-.38,0a4.12,4.12,0,0,0,.75.44C358.64,129.51,358.88,129.43,358.55,129.23ZM370.17,99.3q-1.95-.75-3.93-1.38c-.71-.21-1.43-.43-2.15-.62.25.88.51,1.75.76,2.62.78,2.67,1.53,5.33,2.34,8,1.6,5.25,3.47,10.47,6.36,14.79a9.89,9.89,0,0,0,2.53,2.77,17.77,17.77,0,0,0,3,1.73,9.48,9.48,0,0,0,5.58.83,19.61,19.61,0,0,0,2.9-.6c.93-.26,1.84-.45,2.68-.76a8.54,8.54,0,0,0,4.19-3.08,4.81,4.81,0,0,0,.83-2.21,7.21,7.21,0,0,0-.38-2.91,17.72,17.72,0,0,0-4-6.19,51.87,51.87,0,0,0-13.14-9.5A71.4,71.4,0,0,0,370.17,99.3Z"/><g id="lisa"><circle class="cls-2" cx="91.46" cy="92.72" r="6.27" transform="translate(-13.67 15.85) rotate(-9.22)"/><path class="cls-2" d="M127.25,143.1,127,143a33.81,33.81,0,0,0-6.79-1.43,47.31,47.31,0,0,0-6.5-.31,37.92,37.92,0,0,0-6.56.71,23.63,23.63,0,0,0-6.86,2.36l-.25.14a3.1,3.1,0,0,0-.77.59,3.39,3.39,0,0,0,4.84,4.75,7.56,7.56,0,0,1,4.13-1.78,21.24,21.24,0,0,1,5.23-.05,28.1,28.1,0,0,1,5.23,1.09,16.57,16.57,0,0,1,4.48,2.08,5,5,0,0,0,1.22.61,4.57,4.57,0,0,0,2.85-8.68Z"/><path class="cls-2" d="M143.32,116.56a120.56,120.56,0,0,0-4.26-22.5,175.15,175.15,0,0,0-6.92-21.21A5.1,5.1,0,0,0,122.49,76v0c1.73,7.08,4.1,13.93,5.94,20.88a167,167,0,0,1,4.52,20.6,39.14,39.14,0,0,1,.38,4.8A13.64,13.64,0,0,1,133,126c-.09.36-.15.45,0,.44s.24.09,0,.19l-.05,0s.1,0,.14,0a.85.85,0,0,1,.27.09c.15.07.2.12.21.17s-.18,0-.4,0a6.91,6.91,0,0,1-1.65-1.15,22.77,22.77,0,0,1-3.33-3.82c-1-1.44-2-2.94-2.9-4.5q-1.62-2.8-3-5.75c-.14-1.38-.32-2.74-.57-4.08a5.5,5.5,0,0,0-10.87,1.7v0c.23,1.92.52,3.82.68,5.68a31.28,31.28,0,0,1,.08,5.27,17.4,17.4,0,0,1-.32,2.08l0,.11-.34-.28a23.78,23.78,0,0,1-2-1.94,33.67,33.67,0,0,1-3.64-4.71c-.47-.72-.93-1.46-1.39-2.2a18,18,0,0,0,0-2.21,12.78,12.78,0,0,0-1-4.54,4.85,4.85,0,0,0-9,3.49c-.11,0-.07.59-.12,1.19s-.15,1.38-.25,2.12a48.38,48.38,0,0,1-1.08,4.78,44.22,44.22,0,0,1-3.81,9.49,28,28,0,0,1-2.81,4.18,19.15,19.15,0,0,1-3.52,3.45,16,16,0,0,1-9.45,3.24h-.06a1.52,1.52,0,0,0-.43,3,17.72,17.72,0,0,0,6.45.89,19.14,19.14,0,0,0,6.58-1.53,28,28,0,0,0,10.42-8.22,42.88,42.88,0,0,0,3.7-5.39,41.84,41.84,0,0,0,2.29-4.83c.24.61.47,1.22.73,1.84a32.75,32.75,0,0,0,1.54,3.17,14.46,14.46,0,0,0,2.51,3.31,8.61,8.61,0,0,0,2.5,1.71,7.06,7.06,0,0,0,2.14.59q.31,0,.63.06h.39l.79,0a9.28,9.28,0,0,0,3.36-1A9.56,9.56,0,0,0,119,130a12.34,12.34,0,0,0,2.5-4.65,20.1,20.1,0,0,0,.68-3.15c.35.84.71,1.68,1.09,2.51a59,59,0,0,0,2.71,5.38,15.13,15.13,0,0,0,2.12,2.84,8.74,8.74,0,0,0,1.89,1.47,6.41,6.41,0,0,0,1.51.62,6.65,6.65,0,0,0,.95.19l.48,0h.3a8.78,8.78,0,0,0,5.11-1.48,10.23,10.23,0,0,0,3.26-3.89,15.2,15.2,0,0,0,1.26-3.73c.12-.59.23-1.17.29-1.72s.14-1.11.18-1.65A45.61,45.61,0,0,0,143.32,116.56Zm-30.81,6.83a3.9,3.9,0,0,1-.53-.3h0a1.56,1.56,0,0,1,.64.22C112.83,123.45,112.69,123.45,112.51,123.39Z"/><path class="cls-2" d="M73.72,134.82a4.33,4.33,0,0,0,.69.29l.39.11a1,1,0,0,0,.24,0c.3,0,.59,0,.9,0A8.62,8.62,0,0,0,79.86,134a9.5,9.5,0,0,0,2.93-2.8,13,13,0,0,0,1.45-3,22.23,22.23,0,0,0,1-5.25,48.89,48.89,0,0,0-.24-9.2c-.31-2.93-.78-5.79-1.35-8.6-1.15-5.61-2.59-11.07-4.16-16.46a142.9,142.9,0,0,0-5.42-15.89,5.1,5.1,0,0,0-9.65,3.2h0c1.31,5.34,3,10.53,4.51,15.75s2.9,10.45,4.08,15.65c.58,2.6,1.1,5.18,1.53,7.73a48.74,48.74,0,0,1,.73,7.32,15.28,15.28,0,0,1-.22,2.93,7.3,7.3,0,0,1-.2.83c0,.14,0,.15.07.16s.18.06,0,.13-.08,0-.13,0,0,0,0,0a.6.6,0,0,1,.13.09.83.83,0,0,1,.18.22.56.56,0,0,1-.12.75,1.67,1.67,0,0,1-1.58,0,4.28,4.28,0,0,1-1.54-1.07l0,0a1.79,1.79,0,0,0-2.81,2.2c.43.61.75,1.32,1.17,2.06a14.25,14.25,0,0,0,1.65,2.53A5.48,5.48,0,0,0,73.72,134.82Z"/></g></g><g id="leaves"><path class="cls-3" d="M57.84,77.37C47.05,78.48,40,84.3,34.83,93.05c6.69-6.13,14.38-8.26,23.26-6.31C49.2,106.4,27.76,116.12,6.73,106.68,22.75,108.05,25.39,53.72,57.84,77.37Z"/><path class="cls-3" d="M102.07,58.42c-2.38,13.57-15.78,19.76-26.6,18-.77-6,8.33-9.1,8.92-9.5a17.85,17.85,0,0,0-13.51,4.91C67.85,52.18,92.17,63.22,102.07,58.42Z"/><path class="cls-3" d="M76.35,49.41a7.86,7.86,0,0,1-8.16-7.65A8,8,0,0,1,76,33.68a7.87,7.87,0,1,1,.35,15.73Z"/><path class="cls-3" d="M37.25,33.46c10.72,6.71,17.59,15.95,20.29,29C27.89,57,12.86,37.24,21.72,5.78,31.13,31,63,22.54,69.27,57.78c3.66,21.85-13.68,37.94-8.88,72.6-10-30.9,15.11-59.51-3.22-83.8C52.19,40.25,42.1,33.68,37.25,33.46Z"/></g></svg>