<svg xmlns="http://www.w3.org/2000/svg" xmlns:xlink="http://www.w3.org/1999/xlink">
    <symbol viewBox="0 0 1000 795.94" id="curves">
        <defs>
            <style>.cls-1{fill:url(#linear-gradient);}.cls-2{fill:url(#linear-gradient-2);}.cls-3{fill:url(#linear-gradient-3);}.cls-4{fill:url(#linear-gradient-4);}.cls-5{fill:url(#linear-gradient-5);}.cls-6{fill:url(#linear-gradient-6);}.cls-7{fill:url(#linear-gradient-7);}.cls-8{fill:url(#linear-gradient-8);}.cls-9{fill:url(#linear-gradient-9);}.cls-10{fill:url(#linear-gradient-10);}.cls-11{fill:url(#linear-gradient-11);}.cls-12{fill:url(#linear-gradient-12);}.cls-13{fill:url(#linear-gradient-13);}.cls-14{fill:url(#linear-gradient-14);}.cls-15{fill:url(#linear-gradient-15);}.cls-16{fill:url(#linear-gradient-16);}.cls-17{fill:url(#linear-gradient-17);}.cls-18{fill:url(#linear-gradient-18);}.cls-19{fill:url(#linear-gradient-19);}.cls-20{fill:url(#linear-gradient-20);}.cls-21{fill:url(#linear-gradient-21);}.cls-22{fill:url(#linear-gradient-22);}.cls-23{fill:url(#linear-gradient-23);}.cls-24{fill:url(#linear-gradient-24);}.cls-25{fill:url(#linear-gradient-25);}.cls-26{fill:url(#linear-gradient-26);}.cls-27{fill:url(#linear-gradient-27);}.cls-28{fill:url(#linear-gradient-28);}.cls-29{fill:url(#linear-gradient-29);}.cls-30{fill:url(#linear-gradient-30);}.cls-31{fill:url(#linear-gradient-31);}.cls-32{fill:url(#linear-gradient-32);}.cls-33{fill:url(#linear-gradient-33);}.cls-34{fill:url(#linear-gradient-34);}.cls-35{fill:url(#linear-gradient-35);}.cls-36{fill:url(#linear-gradient-36);}.cls-37{fill:url(#linear-gradient-37);}</style>
            <linearGradient id="linear-gradient" x1="964.13" y1="25.35" x2="-451.59" y2="-658.23" gradientUnits="userSpaceOnUse"><stop offset="0" stop-color="#fff" stop-opacity="0"/><stop offset="1" stop-color="#fff"/></linearGradient>
            <linearGradient id="linear-gradient-2" x1="955.63" y1="58.01" x2="-469.84" y2="-630.28" xlink:href="#linear-gradient"/>
            <linearGradient id="linear-gradient-3" x1="949.49" y1="83.43" x2="-484.76" y2="-609.1" xlink:href="#linear-gradient"/>
            <linearGradient id="linear-gradient-4" x1="943.26" y1="106.85" x2="-499.34" y2="-589.71" xlink:href="#linear-gradient"/>
            <linearGradient id="linear-gradient-5" x1="936.8" y1="128.84" x2="-514.01" y2="-571.69" xlink:href="#linear-gradient"/>
            <linearGradient id="linear-gradient-6" x1="929.9" y1="150.01" x2="-529.11" y2="-554.48" xlink:href="#linear-gradient"/>
            <linearGradient id="linear-gradient-7" x1="922.52" y1="170.64" x2="-544.81" y2="-537.86" xlink:href="#linear-gradient"/>
            <linearGradient id="linear-gradient-8" x1="914.68" y1="191.02" x2="-561.06" y2="-521.54" xlink:href="#linear-gradient"/>
            <linearGradient id="linear-gradient-9" x1="906.42" y1="211.33" x2="-577.81" y2="-505.33" xlink:href="#linear-gradient"/>
            <linearGradient id="linear-gradient-10" x1="897.55" y1="232.2" x2="-595.2" y2="-488.58" xlink:href="#linear-gradient"/>
            <linearGradient id="linear-gradient-11" x1="888.29" y1="253.46" x2="-612.94" y2="-471.41" xlink:href="#linear-gradient"/>
            <linearGradient id="linear-gradient-12" x1="878.63" y1="275.41" x2="-630.94" y2="-453.48" xlink:href="#linear-gradient"/>
            <linearGradient id="linear-gradient-13" x1="868.65" y1="298.17" x2="-648.93" y2="-434.59" xlink:href="#linear-gradient"/>
            <linearGradient id="linear-gradient-14" x1="858.46" y1="321.83" x2="-666.65" y2="-414.58" xlink:href="#linear-gradient"/>
            <linearGradient id="linear-gradient-15" x1="847.78" y1="346.76" x2="-685.11" y2="-393.4" xlink:href="#linear-gradient"/>
            <linearGradient id="linear-gradient-16" x1="832.5" y1="369.49" x2="-730.62" y2="-385.27" xlink:href="#linear-gradient"/>
            <linearGradient id="linear-gradient-17" x1="816.27" y1="391.16" x2="-782.51" y2="-380.81" xlink:href="#linear-gradient"/>
            <linearGradient id="linear-gradient-18" x1="800.36" y1="412.44" x2="-831.71" y2="-375.61" xlink:href="#linear-gradient"/>
            <linearGradient id="linear-gradient-19" x1="784.72" y1="433.28" x2="-880.46" y2="-370.76" xlink:href="#linear-gradient"/>
            <linearGradient id="linear-gradient-20" x1="769.3" y1="453.74" x2="-929.65" y2="-366.6" xlink:href="#linear-gradient"/>
            <linearGradient id="linear-gradient-21" x1="753.6" y1="474.93" x2="-979.91" y2="-362.1" xlink:href="#linear-gradient"/>
            <linearGradient id="linear-gradient-22" x1="738.28" y1="495.39" x2="-1030.58" y2="-358.71" xlink:href="#linear-gradient"/>
            <linearGradient id="linear-gradient-23" x1="723.23" y1="515.16" x2="-1081.74" y2="-356.37" xlink:href="#linear-gradient"/>
            <linearGradient id="linear-gradient-24" x1="708.45" y1="534.14" x2="-1133.31" y2="-355.16" xlink:href="#linear-gradient"/>
            <linearGradient id="linear-gradient-25" x1="693.49" y1="553.08" x2="-1185.68" y2="-354.27" xlink:href="#linear-gradient"/>
            <linearGradient id="linear-gradient-26" x1="678.55" y1="571.48" x2="-1238.54" y2="-354.19" xlink:href="#linear-gradient"/>
            <linearGradient id="linear-gradient-27" x1="663.83" y1="588.81" x2="-1291.66" y2="-355.4" xlink:href="#linear-gradient"/>
            <linearGradient id="linear-gradient-28" x1="649.26" y1="605.09" x2="-1345" y2="-357.84" xlink:href="#linear-gradient"/>
            <linearGradient id="linear-gradient-29" x1="634.78" y1="620.37" x2="-1398.5" y2="-361.41" xlink:href="#linear-gradient"/>
            <linearGradient id="linear-gradient-30" x1="620.35" y1="634.67" x2="-1452.15" y2="-366.04" xlink:href="#linear-gradient"/>
            <linearGradient id="linear-gradient-31" x1="605.93" y1="648" x2="-1505.85" y2="-371.68" xlink:href="#linear-gradient"/>
            <linearGradient id="linear-gradient-32" x1="591.51" y1="660.33" x2="-1559.54" y2="-378.3" xlink:href="#linear-gradient"/>
            <linearGradient id="linear-gradient-33" x1="577.05" y1="671.71" x2="-1613.17" y2="-385.83" xlink:href="#linear-gradient"/>
            <linearGradient id="linear-gradient-34" x1="562.51" y1="682.18" x2="-1666.63" y2="-394.16" xlink:href="#linear-gradient"/>
            <linearGradient id="linear-gradient-35" x1="547.87" y1="691.76" x2="-1719.86" y2="-403.21" xlink:href="#linear-gradient"/>
            <linearGradient id="linear-gradient-36" x1="533.03" y1="700.66" x2="-1772.87" y2="-412.75" xlink:href="#linear-gradient"/>
            <linearGradient id="linear-gradient-37" x1="518.01" y1="708.84" x2="-1825.52" y2="-422.73" xlink:href="#linear-gradient"/>
        </defs>
        <path class="cls-1" d="M1000,8.86V.25Q955.93,2.34,911.82,0H823.77C881.85,9.3,941.29,11.44,1000,8.86Z"/>
        <path class="cls-2" d="M1000,29.48V21.66A1184.25,1184.25,0,0,1,876.17,19c-41.26-3-82.64-8-122.6-19H715.85c8.53,3,17.19,5.72,25.9,8.05,41.31,11.06,84.44,15.54,127.16,18.45C912.51,29.47,956.3,30.62,1000,29.48Z"/>
        <path class="cls-3" d="M1000,48.55V41.44c-42.14.46-84.32-.92-126.39-3.25S789.45,32.87,748.27,25C721,19.82,694.18,12.06,669,0H640c17.72,9.43,35.69,17.52,55,23.19A407.63,407.63,0,0,0,751.47,35.1c40.89,5.93,82.47,8.12,123.82,10.1C916.82,47.19,958.41,48.69,1000,48.55Z"/>
        <path class="cls-4" d="M1000,66.29V59.77c-40.63-.59-81.24-2.5-121.83-4.25-40.36-1.75-80.86-3.08-121-6.66-27.17-2.43-54.44-6-80.84-13.28S624.68,14,601.22,0H576.38C604.19,17.64,633.66,33.73,665,44.36c14.94,5.07,31.8,6.73,47.4,8.58,16,1.9,32.07,3.09,48.12,4,39.74,2.23,79.62,3.08,119.42,4.68C919.92,63.22,959.94,65.34,1000,66.29Z"/>
        <path class="cls-5" d="M1000,82.86v-6c-39.21-1.74-78.38-4.37-117.59-6-39-1.62-78-2-116.93-2.64-20-.32-40-.77-60-2.11-10-.67-19.89-1.57-29.79-2.84a127.47,127.47,0,0,1-25.05-6.21C611.67,43.88,575.76,23.26,542,0H519.73c37.73,27.1,78.11,51.33,122.55,65.63,9.17,3,18.81,6.27,28.44,7.08,10.73.91,21.48,1.44,32.24,1.75,21.6.62,43.21.41,64.81.25,38.16-.27,76.31-.14,114.45,1.44C921.51,77.77,960.73,80.72,1000,82.86Z"/>
        <path class="cls-6" d="M1000,98.44V92.89c-38.49-3-76.94-6.53-115.5-8.34-37.38-1.77-74.79-1.71-112.15-.4-25.56.89-51.13,2.31-76.71,2.91-11.82.28-24,1.17-35.67-.94a275.13,275.13,0,0,1-31.54-7.7C576.69,62.54,530.69,32.62,488,0H467.6C513.86,36.52,564,70.65,621.23,87.12a266,266,0,0,0,33.24,7.33c13.13,2,26,1,39.18.23,27.11-1.64,54.2-3.88,81.3-5.25a1099.6,1099.6,0,0,1,112.22-.07C924.86,91.3,962.41,95.12,1000,98.44Z"/>
        <path class="cls-7" d="M1000,113.22V108c-37.31-4.2-74.6-8.74-112.1-11a844.69,844.69,0,0,0-108.73.41c-31,2.13-61.94,5.95-92.85,9.46-7.76.88-15.71,2.32-23.52,2q-8.88-.34-17.7-1.36a251.36,251.36,0,0,1-36.78-7.09C543.7,83,488.47,42.12,437.71,0h-19.1c53.71,45.68,112.26,91.16,181.83,109a243.7,243.7,0,0,0,40.6,6.85q9.72.8,19.48.77c7.71,0,15.24-1.42,22.84-2.55,32.47-4.81,65-9.61,97.66-12.19a750.52,750.52,0,0,1,109.17-.48C926.94,103.84,963.46,108.67,1000,113.22Z"/>
        <path class="cls-8" d="M787.19,112.52a583.12,583.12,0,0,1,106,.06c35.82,3.16,71.31,9,106.78,14.8v-4.9c-36.3-5.45-72.61-11-109.22-14a630.3,630.3,0,0,0-105.8.26c-35.48,3.16-70.64,9.56-105.6,16.62-28.38,5.73-57.3,4.94-85.62-1C519.4,108.64,457.65,59.29,401.83,10.49q-6-5.22-11.89-10.49H371.89c13,11.74,26.05,23.41,39.35,34.76C465,80.59,525.64,124.46,597.38,135a226.49,226.49,0,0,0,41.06,2.26c15.46-.57,30-3.32,45.07-6.79C717.73,122.55,752.28,115.81,787.19,112.52Z"/>
        <path class="cls-9" d="M792.51,122c70-7,138.86,5.21,207.49,19.06v-4.67c-69.27-13.11-138.63-24.63-209.11-17.71-35.33,3.46-70.21,11-104.51,20.38-14.87,4.06-29.42,8.28-44.74,10.28A221.89,221.89,0,0,1,602.06,151c-68.26-3.31-127.78-39.3-179.45-81.23C395.48,47.76,369.79,23.86,344.2,0H327c32.44,31.05,65.29,62.21,100.72,89.71,51.3,39.82,110.79,70.94,177.43,70A225.8,225.8,0,0,0,645,155.57c15-2.91,29.29-7.84,43.87-12.15C722.78,133.42,757.4,125.57,792.51,122Z"/>
        <path class="cls-10" d="M798.79,130.68c68.2-6.56,135,7.87,201.21,23.85V150c-66.94-15.33-134.4-29-203.14-22.34-35.16,3.42-69.76,11.68-103.42,22.63-28,9.11-54.58,19.83-84.05,23.1A219.77,219.77,0,0,1,523.88,166c-31.74-9.22-60.89-25.3-87.73-44.25-22.9-16.16-44.26-34.59-64.95-53.56C347,46,322.71,23.75,300,0H283.41c26.31,28.71,54.84,54.62,83.44,81,22.91,21.1,46.77,41.49,72.79,58.58,26.85,17.65,56.12,31.86,87.67,39a219.9,219.9,0,0,0,83.85,2.21c30-5,57.11-17.47,85.7-27.17C730,142.32,764.09,134,798.79,130.68Z"/>
        <path class="cls-11" d="M805,139c66.44-5.59,131.25,11,195,28.88v-4.41c-64.57-17.37-130.09-33.25-197.17-27.31C767.7,139.26,733.22,147.94,700,160c-29.26,10.63-56.67,25.52-87,33-27.45,6.79-56.08,8.84-84.14,5-30-4.11-58.44-15-84.56-30a359.87,359.87,0,0,1-42.07-28.73c-15.44-12.06-29.24-26-44.47-38.24C320.55,71.22,287.87,36.11,256.88,0H241c33.45,40.18,68.63,79.54,109.15,112.78,31,25.43,60.56,52.67,96.35,71.21,26.14,13.54,54.49,22.48,84,24.82,28.31,2.24,56.87-1.41,84-9.46,30.46-9,57.95-25.09,87.62-36.2C735.34,150.73,769.86,141.94,805,139Z"/>
        <path class="cls-12" d="M811.19,147.32c64.75-4.3,127.52,14.25,188.81,33.92v-4.35c-62-19.15-125.29-37.08-190.5-32.44-35.37,2.52-70.06,11.4-103.2,24.33a434,434,0,0,0-50.65,23.76,299.75,299.75,0,0,1-38.43,17.65c-54.54,20.49-113.91,23-167.94.2-18.4-7.78-35.7-18.2-51.91-29.93-9.16-6.63-17.82-13.83-26.54-21-11.18-9.21-23.15-17.4-34.18-26.85C291,93.48,252.17,46.92,214.9,0H199.56c39.27,50.38,79.89,100.73,128,143.08A418.06,418.06,0,0,0,364,172c10.06,7.05,19.43,15,29.47,22.06,17.37,12.25,36.06,22.86,56,30.22,55.43,20.47,115.59,13.84,169.52-8.76a318.68,318.68,0,0,0,38.22-19.16,369,369,0,0,1,51.21-24.71C741.36,158.55,775.93,149.66,811.19,147.32Z"/>
        <path class="cls-13" d="M450.18,261.56C508.3,274.07,569,258,621,231.1a361.19,361.19,0,0,0,40-24c16.09-11.11,34.6-19.37,52.63-26.86C746.86,166.45,782,157.5,817.89,156c62.89-2.63,123.39,17.74,182.11,38.83v-4.35C940.55,169.79,879.41,150,816,153.06c-36,1.75-71.26,10.79-104.68,24.54-17.91,7.38-35.74,15.57-51.95,26.2a347.27,347.27,0,0,1-37.91,21.55c-52.65,25.7-113.42,39-170.82,23.52-21.84-5.88-42.46-16-61.37-28.41-27.35-18-53.94-36.86-78-59.2-51.8-48.14-95-105-137.58-161.26H158.85c44.73,59.63,89.62,120.43,143.81,171.94a439.49,439.49,0,0,0,41.67,35.29c13.38,9.87,27.65,18.59,41.72,27.44C405.78,247.09,427.41,256.65,450.18,261.56Z"/>
        <path class="cls-14" d="M448,296c61.74,4.56,124.22-19.73,176.34-50.95a410.2,410.2,0,0,0,39.35-26.76c8.36-6.44,18.28-11.25,27.62-16.12s18.71-9.36,28.34-13.45c33.26-14.14,68.65-22.82,104.67-23.33,61.09-.87,119.39,21.08,175.68,43.38v-4.38C943.16,182.46,884.37,161,822.91,162.25c-36.33.74-72,9.58-105.56,23.78-9.7,4.11-19.21,8.62-28.56,13.45-8.42,4.36-17.33,8.61-24.93,14.31a391.47,391.47,0,0,1-39.48,26c-51.84,29.9-113.85,51.93-174.47,44.68a184.4,184.4,0,0,1-71-24.28c-16.91-9.89-33.54-19.33-49.1-31.36A461,461,0,0,1,285.06,189C228.06,131.64,181.17,64.78,133.19,0H118.81c49.76,67.14,97.59,136.89,155.76,197.17,29,30.05,61.23,57.79,99,76.25,12.16,5.95,24,11.83,37,15.73A176,176,0,0,0,448,296Z"/>
        <path class="cls-15" d="M446.24,328c30.86-2.1,61.21-10.68,90-21.92a487.57,487.57,0,0,0,91.88-48q10.59-7.05,20.8-14.65c6.93-5.16,13.4-11.25,20.7-15.84a408.28,408.28,0,0,1,56.07-29.89c33.89-14.55,70.1-22.8,106.85-21.95,58.63,1.37,114.1,24.41,167.49,47.45v-4.47c-54.21-22.88-110.52-45.64-169.88-46.38-36.16-.46-71.78,7.72-105.18,21.86a369.1,369.1,0,0,0-56.45,29.62c-7.14,4.62-13.56,10.5-20.44,15.5s-13.8,9.75-20.9,14.33a454.15,454.15,0,0,1-89.73,45c-28.83,10.56-59.24,18.08-90,18.8-1.07,0-2.13,0-3.2.05-74.81.55-136.25-48.81-184.7-101.16C199.34,151.41,150.24,76.77,97.65,5.81,96.22,3.87,94.78,1.94,93.34,0H79.41Q87.86,11.25,96.2,22.55C149,94.06,198,169.67,259.05,234.62c30.09,32,64.29,62.31,105,79.88a174.52,174.52,0,0,0,80.54,13.62Z"/>
        <path class="cls-16" d="M99,78.62c25.41,35.63,50.13,71.79,75.92,107.16,27.55,37.78,56.34,75.17,90,107.77,15.63,15.13,32.4,29.23,50.76,40.95,17,10.87,36.75,21.42,56.84,24.92,26.56,4.62,53.94,1.94,80-4.07,32.21-7.42,63.33-19.52,93.14-33.81A586.15,586.15,0,0,0,639,265.89q10.29-7.56,20.19-15.65A224.71,224.71,0,0,1,684,232.7a353.63,353.63,0,0,1,57.11-29c33.89-13.2,70-19.05,106-15.77,53.75,4.9,104.18,27.71,152.84,50.32v-4.58C949.92,210.88,898,187.89,842.68,184c-36.54-2.58-72.88,4.14-107,17.93a372,372,0,0,0-57.65,29.94c-15.31,9.59-28.75,21.8-43.49,32.25a554.65,554.65,0,0,1-91.24,52.36c-29.56,13.45-60.56,24.62-92.59,30.38-26,4.69-54.15,6-79.89-1.23-41.51-11.7-77.33-41.08-107.22-71.05-32.81-32.9-61.23-70-88.59-107.42-25.84-35.38-50.74-71.46-76.35-107Q76.82,29.79,54.09,0H40.58C60.66,25.76,80,52,99,78.62Z"/>
        <path class="cls-17" d="M101.29,133.52c25.47,37.32,50.37,75.07,77.06,111.55,27.34,37.38,56.67,74.31,92.26,104.24,15.74,13.23,32.84,25,51.51,33.74,16.59,7.73,34.34,13.59,52.77,12.81,28.58-1.22,56.77-8.67,83.64-18,33.35-11.62,65.64-26.47,96.77-43.2,33.07-17.78,65.08-37.84,94.62-61.05,7-5.49,13.57-11.59,20.85-16.69,9.88-6.93,20-13.51,30.41-19.61a304.93,304.93,0,0,1,55.2-25.77,217.54,217.54,0,0,1,105.17-9.11c48.79,7.82,94.32,29.87,138.45,51.72V249.4c-45.49-22.17-92.49-44.56-142.81-51.6a221.86,221.86,0,0,0-106.1,11.34A320.16,320.16,0,0,0,695.33,236c-10.17,6.08-20.89,12.29-30,19.86-6.53,5.4-13,10.82-19.75,16-29,22.23-60.27,41.51-92.64,58.43C522,346.42,490,360.58,456.76,371c-26.39,8.29-54.17,14.32-82,13.67-18.63-.44-36.89-7.73-53.28-16.2-19.24-10-36.76-23-52.91-37.36-34.75-30.95-63.77-68-91.08-105.47-26.28-36.07-51-73.22-76.42-109.91C73.74,76.25,45.56,37.4,15.42,0H2.31C37.64,42.78,70,87.73,101.29,133.52Z"/>
        <path class="cls-18" d="M103.11,187.39c25.19,38.73,50.1,77.72,77.71,114.79,26.5,35.58,55.85,70.69,92.42,96.36,16.62,11.67,34.91,21.2,54.58,26.53,8.84,2.4,19,4.94,28.23,4.47,6.75-.34,13.77-2.15,20.35-3.58,30.37-6.6,59.79-17.57,88.3-29.72,68.79-29.32,137.07-65.87,195.2-113.36,32.58-26.61,70.19-49.52,110.83-61.32,34.45-10,70.28-10.37,105-2.41,43.77,10,84.54,30.89,124.29,51.67V266c-40.88-21.1-82.88-42.32-128-51.88a210.26,210.26,0,0,0-103.25,3.54c-40.6,11.92-78,34.65-110.61,61.2-29.24,23.8-61.14,44.28-93.94,62.78A877.55,877.55,0,0,1,463.76,390.4c-27.83,11.32-56.68,21.29-86.4,26.37-6.55,1.12-13.72,2.7-20.39,2.34-9.45-.51-19.17-3-28.16-5.88-19.47-6.16-37.49-16.26-53.92-28.3-36.84-27-66.52-63-93.54-99.5C154.11,248.67,129.27,210.17,104.1,172,71.32,122.3,37.78,73.11,0,27V41.64C37.55,87.94,70.63,137.47,103.11,187.39Z"/>
        <path class="cls-19" d="M105.55,242.05c24.59,39.63,49.41,79.35,78.12,116.18,26.19,33.61,56.6,66.76,95.12,86.29,17.34,8.79,36.29,14.37,55.77,15.23,15.93.7,31.05-5.29,45.93-10.48,31.31-10.92,61.82-24.22,91.82-38.25,35.45-16.57,70.42-34.41,104.37-54,17.18-9.88,34.09-20.24,50.53-31.32s32-23.61,47.91-35.68c33.28-25.27,70.44-47.34,111.59-56.59,34.59-7.78,69.89-5,103.52,5,38.5,11.48,74.5,30.72,109.77,50v-5.06c-36.54-19.79-73.89-39.57-113.91-50.76-33.86-9.47-69.26-11.41-103.76-3-41.33,10-78.59,32.57-112.05,58.2-15.39,11.78-30.43,23.77-46.53,34.61-16.38,11-33.22,21.35-50.34,31.2-33.52,19.29-68.08,36.88-103.21,53-29.81,13.65-60.25,26.46-91.62,36.22-7.14,2.23-14.33,4.28-21.59,6.07-8.58,2.11-16.71,1.87-25.47.76-19.34-2.44-37.81-9.38-54.65-19.06-37.72-21.7-67.59-55.43-93.76-89.61-28.23-36.88-53-76.28-77.68-115.55C72.07,172.41,38.76,119.24,0,69.89V83.31C38.9,133.69,72,188.06,105.55,242.05Z"/>
        <path class="cls-20" d="M479.62,424.06C515.89,406.79,552,388.91,587,369.28c17.21-9.63,34.19-19.7,50.63-30.59,17.89-11.86,34.31-25.53,51.81-37.9,33.39-23.61,71-42.25,111.77-48.37,34.64-5.21,69.63-.77,102.69,9.78C937.76,273,969.1,289.74,1000,307.29V302c-32.14-18.11-64.87-36.61-100.06-47.65C866.8,244,831.76,240,797.2,245.92c-41.25,7-79,27-112.4,51.61-16.88,12.45-33,25.7-50.47,37.32-16.49,10.95-33.48,21.14-50.71,30.88-34.71,19.61-70.41,37.52-106.38,54.63-31.72,15.1-63.78,29.69-96.4,42.83-7.12,2.87-14.28,5.67-21.48,8.34-6.67,2.48-13.77,5.86-20.8,7.08-19,3.31-40.09-.49-57.91-7.12-39.84-14.84-71.33-46.69-97.5-79.13-28.92-35.84-53.23-75.23-76.94-114.6C72.11,221.16,39.3,163.59,0,110.33v12.41c39.34,54.49,71.91,113.38,106.25,171,23.56,39.51,47.91,79.05,77.36,114.55,25.81,31.09,57.2,61.22,96.54,73.75a122.08,122.08,0,0,0,28.39,5.48c9.52.66,20.34.87,29.53-1.91,14.61-4.41,28.9-11.08,42.95-17C414.26,454.62,447.06,439.55,479.62,424.06Z"/>
        <path class="cls-21" d="M487.74,436c36.52-16.69,73.15-32.79,108.46-52,18-9.82,35.75-20.24,52.92-31.51,19.2-12.61,37-27.09,56.78-38.89,33-19.75,69.62-33.78,108.15-37.13,35.16-3.06,70.24,2.91,103.43,14C946,299.91,973.41,313,1000,327.25V321.8c-27.78-15.28-56.44-29.3-86.47-39.23-33.21-11-68.34-16.6-103.44-12.94-39,4.07-75.67,19.23-108.66,39.9-19.24,12.06-36.78,26.52-55.75,39-16.91,11.1-34.36,21.38-52.12,31.06-35.34,19.28-72,36.13-108.5,53.07q-50.24,23.33-100.83,46c-15.08,6.73-30.18,13.4-45.39,19.83a89.45,89.45,0,0,1-26.45,7,114.55,114.55,0,0,1-29.42-.74c-40-6.26-72.87-33.43-99-62.83-30.43-34.25-54.65-73.75-77.6-113.18-35-60.17-67-122.34-106.38-179.94v11.58C39.27,219.28,71,282.82,106.33,344c22.65,39.14,46.78,78.37,77.59,111.77,26.38,28.59,59.87,54,99.89,57.4a114.83,114.83,0,0,0,29.79-1.41c9.09-1.6,16.93-4.86,25.31-8.55,15.49-6.82,30.92-13.79,46.34-20.76Q436.52,459.27,487.74,436Z"/>
        <path class="cls-22" d="M490.46,453.75c39.08-16.31,77.72-33.94,115-54.06,18.75-10.1,37.17-20.84,55-32.46,19.43-12.66,37.91-26.12,58.67-36.64C753,313.45,789.9,302.78,827.9,301.72c35.22-1,70,6.11,103.14,17.39,23.59,8,46.52,18.19,69,29.18v-5.6c-23.65-11.89-47.86-22.85-72.86-31.34C894.05,300.1,859.21,293.26,824,294.74,785.66,296.36,748.62,308,714.87,326c-20.5,10.93-38.79,24.81-58.2,37.42-17.68,11.49-35.92,22.12-54.48,32.11-36.71,19.77-74.7,37.12-113.12,53.21-34.21,14.33-68.93,27.34-102.79,42.57q-24.57,11.06-49,22.41c-7.85,3.63-15.67,7.94-23.9,10.62a121.54,121.54,0,0,1-28.11,5.73c-40.07,3.15-75.37-17.74-102.91-45.11-31.17-31-54.8-69.12-76.43-107C69.66,314.41,38.85,247.62,0,185.45v10.81C38.62,259.82,69,328,105.78,392.47c21.42,37.57,45.14,75.51,77,105.31C210.6,523.8,246,541.52,284.87,536c18.77-2.64,35-10.72,51.95-18.64q25-11.68,50.24-22.93c16.2-7.21,33.25-12.78,49.79-19.19Q463.79,464.83,490.46,453.75Z"/>
        <path class="cls-23" d="M496.79,471.13c41.68-17.17,82.88-35.84,122.58-57.31,19.61-10.61,38.52-22.13,57.21-34.27a353.81,353.81,0,0,1,58.08-30.86,266.38,266.38,0,0,1,107-20.44c35.23.76,69.86,8.6,103,19.92,18.77,6.42,37.21,14,55.37,22.1v-5.69a637,637,0,0,0-59.24-24.06c-33.09-11.33-67.74-19-102.94-19.37-37-.37-73.45,7.71-107.32,22.45A361.38,361.38,0,0,0,672,376.23a653.22,653.22,0,0,1-56.47,33.67c-39.31,21.2-80.07,39.65-121.31,56.65-36.31,15-73.14,28.79-110.09,42.17-15.89,5.76-31.81,11.44-47.7,17.17-16.66,6-31.9,15.36-48.73,20.88-86.39,28.37-146.12-57.1-182.91-121.65C66.92,358.65,37.73,287.34,0,220.61v10.14c37.33,68.09,66,140.77,104.6,208,20.22,35.22,43.73,71.37,76.71,96.13,14.58,10.94,31.28,19.25,49.36,22.27,19.76,3.29,39.84-.06,58.28-7.54,7.82-3.18,15.25-6.92,23.2-9.79q11-4,22-7.88,24.93-8.85,49.86-17.76C421.9,500.56,459.61,486.44,496.79,471.13Z"/>
        <path class="cls-24" d="M505.19,488.3c43-17.56,85.56-36.71,126.5-58.83,20-10.82,39-23.31,58.93-34.34a338.94,338.94,0,0,1,57.1-25.34,285.25,285.25,0,0,1,106.34-14.12c35.41,2,70.16,10.29,103.62,21.53C971.94,382,986,387.36,1000,393v-5.74c-15-6.27-30.22-12.18-45.59-17.4-33.38-11.31-68.1-19.55-103.47-21.32a279.23,279.23,0,0,0-106.49,15.48,341,341,0,0,0-57.33,26.64C667.46,402,648.5,414.4,628.5,425.19c-40.65,21.94-82.86,40.95-125.57,58.4C464.11,499.45,424.69,514,385.11,528c-34.06,12-68.82,22.58-102.49,35.63-33.31,12.91-71.94,13-103-5.85-33.61-20.35-57.13-54.9-76.51-88C63,401.1,35.91,325.43,0,254.45V264C35.05,335.65,61.39,412,101.88,480.7c19.37,32.88,43.46,67.54,78.18,85.86,14.73,7.77,31.88,11.93,48.5,12.62,18.38.76,35.38-3.86,52.5-10,34.85-12.51,70.15-23.82,105.08-36.11C426.14,519,466,504.31,505.19,488.3Z"/>
        <path class="cls-25" d="M517.18,504.54c43.06-17.5,85.63-36.6,126.61-58.68,19.94-10.75,39.12-22.83,59.66-32.45A335.39,335.39,0,0,1,760,392.69C830.69,374,903,384.06,971.31,406.4c9.61,3.15,19.18,6.52,28.69,10v-5.74c-10.57-4-21.22-7.84-31.93-11.39C899.68,376.67,827.38,367,756.85,386.73a335.51,335.51,0,0,0-56.78,21.84c-20.45,10-39.62,22.34-59.66,33.11-40.82,22-83.21,41-126.09,58.41C436.91,531.54,357.4,557.63,278.08,584c-17.75,5.9-34.95,12-53.89,12.27a108.08,108.08,0,0,1-46.52-9.86C144,571,119.87,541.83,100.86,511.16,57.77,441.65,33.31,361.68,0,287.08v9c32.3,75.08,55.91,155.79,99.62,225,18.72,29.65,43.06,57.81,76,72.23A108.6,108.6,0,0,0,222,602.46c18.89-.52,36.17-6.69,53.91-12.54C356.94,563.21,438.16,536.64,517.18,504.54Z"/>
        <path class="cls-26" d="M531,520.49c43.64-17.67,86.76-37,128.21-59.47,36.73-19.9,74.23-36.48,115.43-44.59,70.8-13.95,142.4-2.31,210.33,19,5,1.57,10,3.21,15.06,4.87v-5.7q-9.11-3.11-18.25-6.05c-67.89-21.62-139.54-33.1-210.25-18.26a340.53,340.53,0,0,0-56.23,17.11c-20.7,8.28-40,18.94-59.56,29.52-41.4,22.4-84.45,41.7-128,59.33-81.74,33.08-165.81,60.31-249.78,87.31-18,5.8-36,12.8-55,14.7A111,111,0,0,1,176.14,613c-32.81-11.17-58.27-36.76-77.92-64.25-24.08-33.67-39.95-73.82-54.77-112.39C28.45,397.32,15.12,357.66,0,318.66v8.48c14.64,39.37,27.57,79.35,42.38,118.66,14.6,38.72,30.51,78,55,111.39,19.72,26.94,45.29,51.66,77.88,62.14a112.72,112.72,0,0,0,48.92,4.29c19.12-2.46,37.46-9.71,55.73-15.55C364.32,581.07,448.81,553.73,531,520.49Z"/>
        <path class="cls-27" d="M544.84,536.79q32.8-13.18,65-27.86c21.63-9.91,42.56-21.09,63.91-31.54,35.34-17.28,73.05-29.6,112-35.41C857.41,431.3,929.31,443.6,998,464l2,.58v-5.64l-5.11-1.56c-68.64-20.69-140.58-33-212.16-21.56-39.2,6.27-77,19.31-112.36,37.33-42.35,21.6-85,41.87-129.09,59.6C457.36,566.46,371,594.06,284.62,621.13c-19.09,6-38.32,13.45-58,17a118.93,118.93,0,0,1-49.27-1.08c-33-8-59.84-30.58-80.42-56.54C44.47,514.45,26,428.23,0,349.26v8c24.91,79.52,43.24,165.5,96.92,231.14,20.77,25.4,47.74,47.09,80.54,54.43,37.45,8.38,72.58-5.9,107.85-16.9C372.63,598.7,460,570.89,544.84,536.79Z"/>
        <path class="cls-28" d="M560.68,552.68c20.9-8.35,41.68-17.12,62.19-26.44s40.17-20,60.84-28.59A410.34,410.34,0,0,1,793,468.73c69.72-8.3,139.56,2.44,207,20.3v-5.54c-67.38-18.42-137.32-29.68-207.19-21.25a401.2,401.2,0,0,0-109.53,29.63c-20.67,8.83-40.47,19.6-60.91,29C600.81,530.7,579,540,557,548.74c-85.72,34.24-174.06,62-262.36,89C273.44,644.21,252.22,652,230.66,657a129.89,129.89,0,0,1-49.45,2.14c-32.35-5.11-60.08-23.86-81.7-47.52C71.57,581,52.29,542.89,37.17,504.35,21.2,463.64,11.36,421.09,0,379v7.6C10.79,429,20.72,471.46,36.93,512.3c15.27,38.47,34.93,76.28,63.42,106.51,21.94,23.28,50.19,41.12,82.41,45.55a132.55,132.55,0,0,0,49.74-3c21.93-5.42,43.54-13.09,65.15-19.67C386.18,614.68,474.75,587,560.68,552.68Z"/>
        <path class="cls-29" d="M575.82,569.22q31.45-12.4,62.38-26.27c19-8.6,37.57-17.61,57.33-24.45a449.5,449.5,0,0,1,104.58-22.68c67.18-6.36,134.47,2.54,199.89,17.81v-5.41c-65.82-15.88-133.63-25.28-201.35-18.62a438.13,438.13,0,0,0-106.9,24.3c-19.74,7.19-38.35,16.6-57.47,25.24-20.52,9.26-41.32,18-62.25,26.23-86.25,34-175.19,61.34-264.06,87.9q-33.29,9.94-66.6,19.79c-16.89,5-34,7.63-51.67,6.36-32.58-2.33-62.25-17.74-85.66-39.92C73.76,610.8,52.78,573.34,36.89,535,19.92,494,9,451.16,0,407.84V415c8.31,43,19.58,85.69,36.53,126.18C52.75,580,74.38,617.74,105.62,646.13c23.86,21.68,53.86,36.22,86.45,38,18.19,1,35.28-2.31,52.64-7.43q33.53-9.9,67-19.82C400.64,630.4,489.59,603.23,575.82,569.22Z"/>
        <path class="cls-30" d="M591.15,586.08c37.6-14.59,73.8-33.05,112.62-44.37a504.89,504.89,0,0,1,102.15-18.5c65.1-5.07,130.28,2.11,194.08,15V533c-64.48-13.54-130.47-21.19-196.37-15.78a490.26,490.26,0,0,0-102.21,19.35c-18.61,5.65-36.17,12.86-53.91,20.76-19.48,8.68-39.21,16.82-59,24.55C503,615.14,414.9,641.5,326.84,667.09q-33.82,9.84-67.69,19.53c-10.66,3.07-21.42,7-32.35,8.9a153.05,153.05,0,0,1-26,2.31c-32.37,0-63.27-11.71-88.49-31.58-33.16-26.14-56.59-62.94-73.88-101.19C19.87,524,7.89,480.21,0,436v6.83c7.75,44.15,19.86,87.85,38.67,128.63,17.55,38,41.38,74.46,74.87,100.06,25.56,19.53,56.7,30.77,89.1,30.48a156.71,156.71,0,0,0,26.11-2.48c11.1-2,22.14-6.11,33-9.21q34-9.72,67.93-19.48C417.67,645.37,505.77,619.21,591.15,586.08Z"/>
        <path class="cls-31" d="M606.44,603.39q28-10.6,55.46-22.46c16.68-7.24,35-11.64,52.65-15.84a583.82,583.82,0,0,1,97.18-14.46c63-4.14,126.15,1.41,188.27,12.12v-5.08c-62.83-11.29-126.75-17.26-190.56-12.89a563,563,0,0,0-97.2,15.09c-17.9,4.44-36,9.36-52.9,16.73q-27.51,12-55.57,22.62c-84.59,32.28-171.9,57.46-259.1,81.92q-34.08,9.57-68.22,19c-20.59,5.71-41.14,13.15-62.59,14.4a151.65,151.65,0,0,1-91.7-24.48c-36.17-23.62-62.5-59.7-81.63-98.11C20.43,551.56,7.59,507.73,0,463.36v6.48c7.58,44.26,20.66,87.95,41.11,128C60.6,636.09,87.44,671.74,124,694.79a154.33,154.33,0,0,0,92.31,23.43c21.6-1.39,42.52-9.07,63.29-14.79q34.15-9.39,68.29-18.86C434.87,660.36,522,635.44,606.44,603.39Z"/>
        <path class="cls-32" d="M622.55,620.89c17.13-6.33,34-14.43,51.61-19.42q24.57-7,49.67-11.85A695,695,0,0,1,816.66,578c61.26-3.61,122.65.37,183.34,9v-4.9c-60.69-9.09-122.14-13.47-183.48-9.93a667.92,667.92,0,0,0-95.65,12.31Q695.7,589.71,671,597c-9.27,2.75-18.16,7-27.16,10.57q-12.42,4.9-25,9.55c-83.28,30.93-169.29,54.6-255.14,77.63q-34,9.13-68,18.11l-34.13,9.07c-10.64,2.84-21.37,6.59-32.34,7.74-32.7,3.43-65.86-2.46-94.84-17.85C54.94,669.63,15,574.9,0,490.11v6.15C15.3,581.47,56.92,676,137.8,716.64c29.59,14.87,63.2,20.06,96.12,16.13,10.28-1.22,20.7-5.14,30.7-7.78l34.29-9q34.14-9,68.26-18C453.09,675.17,539.19,651.72,622.55,620.89Z"/>
        <path class="cls-33" d="M636.27,639.82q12.35-4.4,24.64-9.05c7.49-2.85,15.19-4.63,23-6.44q23.36-5.4,47.05-9.26A855.75,855.75,0,0,1,822,605.24c59.38-3.32,118.91-.85,178,5.86v-4.7c-58.93-7.08-118.37-9.94-177.67-6.76a822.51,822.51,0,0,0-90.9,9.81q-23.65,3.94-47,9.44C667,623,650.59,629.64,633.73,635.68c-81.67,29.3-166,51.17-250.13,72.48-44.61,11.29-89.28,22.34-133.87,33.7-32.75,8.35-70.14,2.74-100.87-10.27C64,695.68,16.79,602.84,0,516.23v5.85c17.32,86.78,66.06,178.56,151.59,213.3a179.87,179.87,0,0,0,46.55,11.86,191,191,0,0,0,26,1.25,126.34,126.34,0,0,0,29.4-4.06c44.5-11.21,89.08-22.09,133.6-33.22C470.9,690.27,554.92,668.77,636.27,639.82Z"/>
        <path class="cls-34" d="M650.59,659.14c7.88-2.67,15.55-5.52,23.71-7.25q11.16-2.37,22.39-4.44,21.93-4,44-7c29.34-4,58.85-6.72,88.41-8.36A1227.37,1227.37,0,0,1,1000,634.75v-4.49a1190.65,1190.65,0,0,0-173.19-3.41c-29.54,1.62-59,4.39-88.33,8.5q-22.1,3.1-44,7.29-11.24,2.16-22.4,4.63c-8.19,1.81-16,5-23.91,7.73-79.81,27.39-162.22,47.19-244.39,66.5-44.42,10.44-88.9,20.64-133.29,31.21-10.71,2.55-21.21,5.69-32.25,6.2a215.52,215.52,0,0,1-24.51-.24,197.43,197.43,0,0,1-48.38-9.31C75.48,719.77,19.85,630.64,0,541.78v5.54C20.64,636.43,78,724.25,168.42,752.7a203.07,203.07,0,0,0,49,8.84,219.73,219.73,0,0,0,24.75.05c11.17-.59,22.17-4.17,33-6.71,43.53-10.21,87.16-20.06,130.73-30.12C488.16,705.76,570.68,686.31,650.59,659.14Z"/>
        <path class="cls-35" d="M664.44,679.33c13.37-4.07,28.38-5.39,42.39-7.49q22.06-3.33,44.23-5.87,41.82-4.85,83.87-7.36A1431.55,1431.55,0,0,1,1000,658v-4.27a1395.42,1395.42,0,0,0-167.4,0q-42,2.49-83.76,7.39-22.15,2.63-44.21,6c-14.07,2.19-29,3.71-42.54,8.11C584.27,700.45,504,717.92,423.9,735c-43.49,9.27-87,18.32-130.48,27.78q-17.44,3.79-34.88,7.69c-8.47,1.9-17.63,1.49-26.27,1.26a228.09,228.09,0,0,1-48.71-6.49C89.28,741.72,24.2,658.15,0,566.77V572C25.24,663.7,92.15,745.67,187,768.11a234.76,234.76,0,0,0,48.95,6.08c9,.19,18,.17,26.81-1.77q17.38-3.81,34.77-7.53c43.25-9.23,86.59-18,129.88-27.06C507,721.23,587.63,702.68,664.44,679.33Z"/>
        <path class="cls-36" d="M677.23,702.11C783.62,686.25,892.32,677.89,1000,680.6v-4c-108.64-3.41-218.51,4.45-325.78,21.16-19.25,3-38.2,9.9-57.13,14.65s-37.7,9.08-56.64,13.2c-39.16,8.52-78.54,16-117.94,23.37-42.42,7.91-84.86,15.64-127.22,23.85q-16,3.11-32,6.3c-10.08,2-19.69,4.16-30,4.24a272.14,272.14,0,0,1-51.1-4.38A248.81,248.81,0,0,1,74.59,713.08C39.94,679.62,14.59,637,0,591.23v5c15.07,45.45,40.93,87.5,75.9,120.35A253.16,253.16,0,0,0,207,781.69a281.79,281.79,0,0,0,51.62,3.79c10.43-.17,20.65-3,30.86-5q16-3.1,32-6.12c41.37-7.79,82.83-15.12,124.25-22.63,39.36-7.13,78.7-14.42,117.83-22.74,18.94-4,37.83-8.3,56.62-12.94S658,705,677.23,702.11Z"/>
        <path class="cls-37" d="M688.8,726.15c103.1-12.34,207.23-23,311.2-23.5v-3.8c-104.64-.09-209.57,10-313.29,22.82-9,1.1-17.85,2-26.6,4.21q-13.89,3.47-27.86,6.59c-18.82,4.22-37.74,8-56.71,11.6-38.2,7.17-76.59,13.27-115,19.24-40.42,6.28-80.88,12.4-121.24,19-21.53,3.54-43,7.93-64.55,11.11-8.85,1.3-18.48.42-27.38-.05-8.07-.41-16.14-1.13-24.11-2.15-50.8-6.55-99.46-26.35-139.36-59.09C46.33,701.35,17.46,660.5,0,615.21V620c18.27,45.57,48.27,86.33,86.93,116.68,40.52,31.8,89.43,50.63,140.17,56.75,8,1,16.1,1.63,24.19,2,9.16.42,18.78,1.16,27.83-.43q32.06-5.62,64.2-10.69c40.13-6.36,80.33-12.2,120.51-18.2,38.19-5.69,76.35-11.54,114.34-18.45,18.87-3.44,37.7-7.14,56.44-11.26q13.92-3,27.75-6.42C671,727.84,680,727.21,688.8,726.15Z"/>
    </symbol>
</svg>